<?xml version="1.0" encoding="UTF-8"?>
<svg xmlns="http://www.w3.org/2000/svg" viewBox="0 0 1000 1000">
  <g id="Layer_2" data-name="Layer 2">
    <circle cx="500" cy="500" r="400.12" fill="#fff8e6"/>
    <circle cx="500" cy="500" r="357.78" fill="none" stroke="#2e7a23" stroke-miterlimit="10" stroke-width="15"/>
  </g>
  <g id="Layer_4" data-name="Layer 4">
    <line x1="499.24" y1="449.66" x2="499.24" y2="670.23" fill="none" stroke="#8e5c27" stroke-linecap="round" stroke-miterlimit="10" stroke-width="14"/>
    <polyline points="446.75 554.65 499.56 607.45 552.81 554.2" fill="none" stroke="#8e5c27" stroke-linecap="round" stroke-miterlimit="10" stroke-width="14"/>
    <line x1="427.83" y1="670.23" x2="572.11" y2="670.23" fill="none" stroke="#8e5c27" stroke-linecap="round" stroke-miterlimit="10" stroke-width="14"/>
  </g>
  <g id="Layer_3" data-name="Layer 3">
    <g>
      <circle cx="499.94" cy="378.49" r="69.91" fill="none" stroke="#2e7a23" stroke-miterlimit="10" stroke-width="12"/>
      <circle cx="474.23" cy="366.83" r=".6" fill="none" stroke="#2e7a23" stroke-miterlimit="10" stroke-width="13"/>
      <circle cx="524.72" cy="366.83" r=".6" fill="none" stroke="#2e7a23" stroke-miterlimit="10" stroke-width="13"/>
      <path d="M476.07,396.4s22.41,26.4,45.43,0" fill="none" stroke="#2e7a23" stroke-linecap="round" stroke-miterlimit="10" stroke-width="10"/>
    </g>
    <g>
      <circle cx="405.04" cy="496.68" r="69.91" fill="none" stroke="#2e7a23" stroke-miterlimit="10" stroke-width="12"/>
      <circle cx="379.33" cy="485.02" r=".6" fill="none" stroke="#2e7a23" stroke-miterlimit="10" stroke-width="13"/>
      <circle cx="429.82" cy="485.02" r=".6" fill="none" stroke="#2e7a23" stroke-miterlimit="10" stroke-width="13"/>
      <path d="M381.17,514.59s22.41,26.4,45.43,0" fill="none" stroke="#2e7a23" stroke-linecap="round" stroke-miterlimit="10" stroke-width="10"/>
    </g>
    <g>
      <circle cx="593.61" cy="496.68" r="69.91" fill="none" stroke="#2e7a23" stroke-miterlimit="10" stroke-width="12"/>
      <circle cx="567.89" cy="485.02" r=".6" fill="none" stroke="#2e7a23" stroke-miterlimit="10" stroke-width="13"/>
      <circle cx="618.39" cy="485.02" r=".6" fill="none" stroke="#2e7a23" stroke-miterlimit="10" stroke-width="14"/>
      <path d="M569.73,514.59s22.41,19.52,45.43,0" fill="none" stroke="#2e7a23" stroke-linecap="round" stroke-miterlimit="10" stroke-width="10"/>
    </g>
  </g>
  <g id="Layer_5" data-name="Layer 5">
    <g>
      <path d="M266.56,394.59c-1.51,3.33-3.61,6.3-6.31,8.92-2.7,2.62-5.77,4.62-9.21,5.99l-4.28-8.85c2.46-1,4.7-2.41,6.74-4.22,2.04-1.81,3.55-3.8,4.52-5.96,1.18-2.61,1.56-4.82,1.13-6.64-.42-1.82-1.51-3.12-3.27-3.92-1.26-.57-2.41-.7-3.44-.38-1.04.32-2.1.9-3.2,1.76-1.09.86-2.27,1.9-3.52,3.12l-5.89,5.3c-1.43,1.36-3.07,2.55-4.91,3.59-1.85,1.03-3.88,1.66-6.09,1.88-2.21.22-4.53-.22-6.96-1.32-2.74-1.24-4.86-3.09-6.34-5.55-1.49-2.46-2.28-5.28-2.38-8.47-.1-3.19.6-6.44,2.11-9.77,1.34-2.97,3.2-5.57,5.56-7.8,2.36-2.23,5.04-3.89,8.02-4.98l3.92,7.87c-2.02.98-3.77,2.17-5.26,3.55-1.49,1.38-2.72,3.13-3.67,5.24-.98,2.16-1.29,4.09-.95,5.78.34,1.7,1.34,2.92,3.01,3.68,1.17.53,2.3.61,3.39.23,1.09-.37,2.18-1.02,3.27-1.93,1.09-.91,2.24-1.94,3.46-3.07l5.59-5.35c1.72-1.66,3.53-2.96,5.43-3.92,1.89-.96,3.89-1.46,5.97-1.52,2.09-.06,4.34.46,6.77,1.56,2.7,1.22,4.86,3.08,6.49,5.58,1.63,2.5,2.53,5.42,2.69,8.77.16,3.35-.63,6.96-2.38,10.83Z" fill="#2e7c23"/>
      <path d="M278.91,368.58l-46.5-29.08,5.81-9.29,46.5,29.08-5.81,9.29Z" fill="#2e7c23"/>
      <path d="M291.07,348.7l-41.63-35.71,7.28-8.48,32.55,6.96,12.6,3.5.24-.28c-2.36-1.64-4.95-3.44-7.76-5.39-2.81-1.96-5.39-3.94-7.75-5.97l-16.63-14.27,6.75-7.86,41.63,35.71-7.28,8.48-32.51-7.12-12.55-3.45-.24.28c2.41,1.74,4.98,3.56,7.71,5.45,2.73,1.89,5.3,3.86,7.7,5.92l16.68,14.31-6.8,7.92Z" fill="#2e7c23"/>
      <path d="M326.85,308.84l-33.4-43.51,8.87-6.81,30.43,13.5,11.62,6.01.29-.23c-1.98-2.09-4.14-4.38-6.49-6.87-2.35-2.49-4.47-4.97-6.36-7.43l-13.34-17.38,8.22-6.31,33.4,43.51-8.87,6.81-30.36-13.65-11.57-5.95-.29.23c2,2.2,4.14,4.5,6.43,6.92,2.29,2.41,4.39,4.87,6.32,7.38l13.39,17.44-8.28,6.36Z" fill="#2e7c23"/>
      <path d="M364.06,280.49l-8.72-56.92,11.6-5.77,40.13,41.3-10.34,5.14-19.68-22.12c-2.03-2.19-4.07-4.49-6.13-6.92-2.06-2.42-4.11-4.75-6.16-6.98l-.27.13c.7,2.96,1.37,5.99,2,9.09.63,3.1,1.23,6.11,1.8,9.02l5.7,29.08-9.94,4.94ZM367.54,263.05l-3.79-7.62,23.33-11.6,3.79,7.62-23.33,11.6Z" fill="#2e7c23"/>
      <path d="M411.65,257.66l-14.47-52.91,10.78-2.95,23.06,24.01,8.48,9.96.36-.1c-1.04-2.68-2.18-5.62-3.41-8.81-1.23-3.19-2.26-6.29-3.08-9.29l-5.78-21.13,10-2.73,14.47,52.91-10.78,2.95-22.94-24.12-8.46-9.89-.36.1c1.02,2.79,2.13,5.74,3.34,8.83,1.2,3.1,2.22,6.17,3.06,9.22l5.8,21.21-10.07,2.75Z" fill="#2e7c23"/>
      <path d="M463.67,244.82l-3.47-54.74,15-.95c5.61-.36,10.49.32,14.63,2.04,4.14,1.72,7.43,4.5,9.87,8.35s3.86,8.85,4.25,15.01c.39,6.16-.37,11.35-2.28,15.57-1.91,4.23-4.77,7.48-8.58,9.78-3.81,2.29-8.42,3.61-13.84,3.96l-15.59.99ZM474.05,235.26l3.32-.21c3.45-.22,6.38-1.03,8.78-2.45,2.41-1.41,4.19-3.55,5.34-6.42,1.15-2.87,1.59-6.52,1.31-10.95-.28-4.43-1.17-7.95-2.67-10.55-1.5-2.6-3.53-4.42-6.09-5.47-2.56-1.05-5.57-1.46-9.02-1.25l-3.32.21,2.35,37.08Z" fill="#2e7c23"/>
      <path d="M506.66,242.03l23.9-52.39,12.86,1.53,10.94,56.54-11.47-1.36-4.34-29.29c-.5-2.94-.94-5.99-1.33-9.14-.4-3.15-.84-6.22-1.33-9.21l-.29-.03c-1.04,2.86-2.14,5.76-3.31,8.7-1.17,2.94-2.32,5.79-3.44,8.54l-11.17,27.44-11.03-1.31ZM519.13,229.35l1.01-8.45,25.87,3.08-1.01,8.45-25.87-3.08Z" fill="#2e7c23"/>
      <path d="M575.27,253.85l19.09-51.42,31.64,11.75-3.19,8.6-21.37-7.94-4.97,13.39,18.25,6.78-3.19,8.6-18.25-6.78-7.73,20.82-10.27-3.81Z" fill="#2e7c23"/>
      <path d="M631.24,280.37c-4.15-2.49-7.21-5.66-9.18-9.52-1.97-3.86-2.74-8.16-2.31-12.91.43-4.75,2.18-9.68,5.25-14.8,3.05-5.08,6.54-8.88,10.47-11.42,3.93-2.53,8.05-3.8,12.34-3.82,4.29-.01,8.52,1.22,12.66,3.71,4.19,2.51,7.27,5.67,9.25,9.47,1.98,3.8,2.78,8.03,2.42,12.67-.37,4.64-2.07,9.5-5.12,14.58-3.07,5.12-6.6,8.99-10.58,11.61-3.99,2.62-8.13,3.97-12.45,4.06-4.31.09-8.56-1.12-12.75-3.63ZM636.12,272.24c2.33,1.4,4.75,1.93,7.28,1.6,2.53-.33,5-1.45,7.41-3.37,2.42-1.92,4.63-4.55,6.63-7.89,2-3.34,3.26-6.49,3.76-9.44.5-2.95.28-5.58-.66-7.9-.94-2.32-2.57-4.18-4.9-5.57-2.33-1.4-4.74-1.96-7.22-1.7-2.49.26-4.9,1.32-7.25,3.16-2.34,1.85-4.52,4.44-6.52,7.78-2,3.34-3.29,6.53-3.87,9.55-.58,3.02-.41,5.72.49,8.11.9,2.38,2.52,4.27,4.84,5.67Z" fill="#2e7c23"/>
      <path d="M659.62,297.93l37.03-40.46,14.03,12.84c2.88,2.63,5.12,5.37,6.73,8.22,1.61,2.85,2.26,5.79,1.96,8.82-.3,3.03-1.87,6.1-4.7,9.19-2.73,2.99-5.65,4.82-8.74,5.49-3.1.68-6.2.41-9.31-.79-3.11-1.21-6.1-3.13-8.98-5.76l-5.95-5.45-13.99,15.29-8.08-7.4ZM681.57,318.02l6.5-25.96,10.28.17-7.71,34.08-9.06-8.3ZM687.54,283.65l5.24,4.8c2.62,2.4,5.11,3.68,7.48,3.83,2.37.16,4.53-.84,6.5-2.99,2-2.18,2.71-4.33,2.12-6.43-.58-2.1-2.18-4.36-4.8-6.76l-5.24-4.8-11.29,12.34Z" fill="#2e7c23"/>
      <path d="M694.82,331.91l43.67-33.19,20.33,26.75-7.31,5.55-13.71-18.03-10.08,7.66,11.6,15.26-7.31,5.55-11.6-15.26-11.67,8.87,14.2,18.68-7.31,5.55-20.83-27.4Z" fill="#2e7c23"/>
      <path d="M727.28,382.59c-1.68-3.24-2.71-6.74-3.09-10.49-.38-3.75-.05-7.39,1.01-10.94l9.6,2.12c-.74,2.55-1.03,5.18-.87,7.91.16,2.72.78,5.14,1.87,7.24,1.31,2.54,2.82,4.21,4.5,5,1.69.79,3.39.75,5.1-.14,1.23-.63,2.04-1.46,2.43-2.47.39-1.01.59-2.21.6-3.6,0-1.39-.08-2.96-.26-4.7l-.5-7.91c-.18-1.96-.1-3.99.23-6.08.34-2.09,1.1-4.07,2.3-5.94,1.2-1.87,2.98-3.42,5.35-4.64,2.67-1.38,5.44-1.9,8.29-1.54,2.85.36,5.56,1.49,8.12,3.38,2.56,1.9,4.68,4.46,6.36,7.71,1.5,2.89,2.39,5.96,2.67,9.2.29,3.24-.07,6.37-1.06,9.38l-8.6-1.8c.48-2.19.64-4.3.48-6.33-.16-2.03-.77-4.07-1.84-6.13-1.09-2.1-2.41-3.55-3.95-4.33-1.54-.78-3.13-.76-4.75.08-1.14.59-1.9,1.43-2.28,2.51-.38,1.09-.55,2.34-.51,3.76.04,1.42.13,2.96.26,4.61l.73,7.7c.23,2.38.13,4.61-.29,6.69-.42,2.08-1.26,3.96-2.5,5.63-1.25,1.67-3.05,3.12-5.42,4.34-2.63,1.36-5.43,1.91-8.4,1.64-2.97-.27-5.82-1.38-8.55-3.33-2.73-1.95-5.07-4.81-7.02-8.58Z" fill="#2e7c23"/>
      <path d="M742.88,416.25l43.49-13.94-4.7-14.66,8.74-2.8,12.76,39.83-8.74,2.8-4.72-14.73-43.49,13.94-3.34-10.43Z" fill="#2e7c23"/>
    </g>
  </g>
  <g id="Layer_7" data-name="Layer 7">
    <g>
      <path d="M228.74,674.85l44.04-32.7,6.53,8.8-19.14,14.21.13.18,29.95.35,7.19,9.69-27.33-.55-14.95,35.62-7.15-9.63,11.32-26.1-11.71-.25-12.36,9.18-6.53-8.8Z" fill="#2e7a23"/>
      <path d="M264.08,718.82l39.28-38.28,7.65,7.85-39.28,38.28-7.65-7.85Z" fill="#2e7a23"/>
      <path d="M285.54,740.44l33.47-43.45,8.85,6.82-5.24,32.87-2.83,12.77.29.23c1.51-2.45,3.17-5.13,4.97-8.03,1.8-2.91,3.66-5.59,5.55-8.06l13.37-17.36,8.21,6.32-33.47,43.45-8.85-6.82,5.4-32.84,2.79-12.71-.29-.23c-1.61,2.5-3.29,5.16-5.03,7.99-1.75,2.83-3.58,5.5-5.51,8l-13.42,17.42-8.27-6.37Z" fill="#2e7a23"/>
      <path d="M336.98,777.33l24.55-49.05,13.44,6.73c5.03,2.52,8.9,5.56,11.62,9.12,2.71,3.57,4.16,7.63,4.33,12.18.17,4.56-1.12,9.59-3.88,15.11s-6.03,9.62-9.8,12.31c-3.78,2.69-7.89,4.07-12.33,4.13-4.45.06-9.1-1.12-13.95-3.55l-13.97-6.99ZM350.75,774.29l2.98,1.49c3.09,1.55,6.03,2.31,8.82,2.3,2.79-.01,5.41-.96,7.85-2.86,2.44-1.9,4.65-4.83,6.64-8.8,1.99-3.97,2.99-7.46,3-10.46.01-3-.83-5.6-2.51-7.8-1.69-2.2-4.08-4.07-7.16-5.61l-2.98-1.49-16.63,33.23Z" fill="#2e7a23"/>
      <path d="M391.66,802.29l15.57-52.59,32.22,9.54-2.61,8.8-21.72-6.43-3.59,12.14,18.38,5.44-2.61,8.8-18.38-5.44-4.16,14.05,22.5,6.66-2.61,8.8-33-9.77Z" fill="#2e7a23"/>
      <path d="M442.55,815.73l6.36-54.48,18.9,2.21c3.87.45,7.29,1.36,10.26,2.73,2.97,1.37,5.22,3.37,6.75,6,1.53,2.64,2.05,6.04,1.57,10.21-.47,4.02-1.76,7.21-3.87,9.57-2.11,2.36-4.79,3.96-8.01,4.8-3.23.84-6.78,1.03-10.65.58l-8.01-.94-2.4,20.59-10.88-1.27ZM456.84,787.81l7.06.82c3.53.41,6.3,0,8.31-1.27,2.01-1.26,3.18-3.33,3.52-6.22.34-2.94-.34-5.09-2.04-6.46-1.7-1.37-4.32-2.26-7.85-2.67l-7.06-.82-1.94,16.62ZM472.11,819.18l-9.92-24.86,8.44-5.87,13.69,32.15-12.21-1.42Z" fill="#2e7a23"/>
      <path d="M523.84,820.14c-4.92.33-9.44-.46-13.55-2.37-4.11-1.9-7.46-4.87-10.05-8.91-2.59-4.03-4.08-9.08-4.48-15.13-.3-4.53.11-8.6,1.23-12.21,1.12-3.61,2.81-6.72,5.06-9.35,2.25-2.62,4.91-4.67,7.98-6.16,3.07-1.49,6.42-2.35,10.07-2.59,3.94-.26,7.35.25,10.23,1.51,2.88,1.27,5.26,2.73,7.15,4.39l-5.38,7.33c-1.46-1.19-3.05-2.17-4.76-2.95-1.71-.78-3.79-1.08-6.25-.92-3.05.2-5.69,1.13-7.9,2.78-2.22,1.66-3.87,3.93-4.97,6.82-1.1,2.89-1.51,6.31-1.25,10.25.26,3.99,1.09,7.36,2.48,10.11s3.35,4.81,5.86,6.18c2.51,1.37,5.54,1.93,9.09,1.7,1.33-.09,2.6-.36,3.8-.81,1.21-.45,2.16-1.02,2.85-1.71l-.71-10.78-9.68.64-.59-8.94,19.5-1.29,1.63,24.67c-1.75,1.95-4.13,3.66-7.15,5.14-3.02,1.49-6.42,2.35-10.21,2.6Z" fill="#2e7a23"/>
      <path d="M552.45,816.48l3.93-57.45,12.58-3.1,30.14,49.07-11.21,2.76-14.38-25.89c-1.5-2.58-2.99-5.27-4.47-8.09-1.48-2.81-2.98-5.53-4.49-8.16l-.29.07c.04,3.04.03,6.14-.03,9.31-.06,3.17-.13,6.23-.21,9.2l-.79,29.62-10.78,2.65ZM559.65,800.22l-2.03-8.27,25.3-6.23,2.03,8.27-25.3,6.23Z" fill="#2e7a23"/>
      <path d="M611.96,800.1l-22.2-50.15,17.39-7.7c3.56-1.58,6.97-2.53,10.23-2.87,3.25-.33,6.21.25,8.87,1.74s4.84,4.16,6.54,7.99c1.64,3.7,2.15,7.1,1.53,10.21-.62,3.11-2.11,5.84-4.46,8.21-2.35,2.37-5.31,4.34-8.88,5.91l-7.38,3.27,8.39,18.95-10.02,4.44ZM610.08,768.79l6.5-2.88c3.25-1.44,5.42-3.21,6.51-5.31s1.05-4.48-.13-7.15c-1.2-2.71-2.88-4.22-5.04-4.53-2.16-.31-4.87.25-8.12,1.69l-6.5,2.88,6.77,15.3ZM639.17,788.05l-21.17-16.37,4.28-9.34,28.12,20.74-11.24,4.97Z" fill="#2e7a23"/>
      <path d="M671.09,770.07l-25.14-38.13-12.85,8.47-5.05-7.66,34.92-23.02,5.05,7.66-12.92,8.52,25.14,38.13-9.15,6.03Z" fill="#2e7a23"/>
      <path d="M705.31,745.5l-37.22-40.29,24.69-22.8,6.23,6.74-16.64,15.37,8.59,9.3,14.08-13.01,6.23,6.74-14.08,13.01,9.94,10.77,17.24-15.92,6.23,6.74-25.28,23.35Z" fill="#2e7a23"/>
      <path d="M743.2,708.56l-43.79-33.03,6.73-8.92,32.93,4.9,12.8,2.7.22-.29c-2.46-1.49-5.16-3.12-8.08-4.89-2.93-1.77-5.63-3.6-8.11-5.47l-17.49-13.2,6.24-8.27,43.79,33.03-6.73,8.92-32.9-5.07-12.74-2.66-.22.3c2.51,1.59,5.19,3.24,8.04,4.95,2.85,1.72,5.53,3.53,8.05,5.43l17.55,13.24-6.29,8.33Z" fill="#2e7a23"/>
    </g>
  </g>
</svg>